<svg xmlns="http://www.w3.org/2000/svg" viewBox="0 0 32 36"><rect width="32" height="36" rx="4" fill="#2c2a2c"/><path d="M16 2.5C8.6 2.5 4 7 4 13.5v7.2l4.5 3.2v6.6h4.2v-5.8h2.1v8.8h2.4v-8.8h2.1v5.8h4.2v-6.6l4.5-3.2v-7.2C28 7 23.4 2.5 16 2.5Z" fill="none" stroke="#ffe202" stroke-width="2.4" stroke-linejoin="round"/><path d="m7.2 13.2 7 2.2-2.6 4.2-4.4-1.8v-4.6Zm17.6 0-7 2.2 2.6 4.2 4.4-1.8v-4.6ZM16 17.8l-2 4h4l-2-4Z" fill="#ffe202"/><path d="M9 24.5h14M12.7 28.5h6.6" fill="none" stroke="#ffe202" stroke-width="1.6" stroke-linecap="round"/></svg>

